<svg id="Capa_1" data-name="Capa 1" xmlns="http://www.w3.org/2000/svg" viewBox="0 0 63.02 60"><defs><style>.cls-1{fill:#0e5227;}.cls-2{fill:#51a133;}.cls-3{fill:#c3c5c3;}.cls-4{fill:#262d37;}</style></defs><path class="cls-1" d="M51.38,24.79A25.3,25.3,0,0,1,38.18,35.6a20.24,20.24,0,0,1-7.63,1.18C31.56,33,34,28.15,38,22.63c1.94-2.71,4.43-6.47,3.95-6.89s-4.32,3.48-5.84,5.31a40,40,0,0,0-7.51,13.58,20.26,20.26,0,0,1-1.75-3,14.76,14.76,0,0,1-.24-12.68c2.42-5.44,7.6-8.62,13.08-12a70.44,70.44,0,0,0,9-6.21,3.07,3.07,0,0,1,5,1.62C55.15,8.41,56,17.37,51.38,24.79Z"/><path class="cls-2" d="M11.83,11c-2-2.75,5.09,1.63,6.92,3.52a45.44,45.44,0,0,1,5,6.14c.15-.34.29-.7.42-1.09a9.76,9.76,0,0,0-.78-8.37c-2-3.4-5.65-5.11-9.51-6.92A46.23,46.23,0,0,1,7.53.84,2,2,0,0,0,4.38,2.27c-.53,4.1-.45,10.06,3.17,14.61A16.77,16.77,0,0,0,17,23a13.31,13.31,0,0,0,5.11.21c0-.13-.1-.26-.16-.4a43,43,0,0,0-5.18-6.45A54.12,54.12,0,0,1,11.83,11Z"/><path class="cls-3" d="M17.73,54.54H19a1.24,1.24,0,0,1,1,.35,1.41,1.41,0,0,1,.32,1v.54a1.46,1.46,0,0,1-.32,1,1.27,1.27,0,0,1-1,.34h-.4V60h-.86ZM19,57a.41.41,0,0,0,.32-.12.6.6,0,0,0,.1-.4v-.64a.6.6,0,0,0-.1-.4.41.41,0,0,0-.32-.12h-.4V57Z"/><path class="cls-3" d="M21.91,54.54h1.16L24,60H23.1l-.16-1.08H22L21.81,60H21Zm.93,3.65-.38-2.7h0l-.38,2.7Z"/><path class="cls-3" d="M25.15,54.54h1.08l.83,3.27h0V54.54h.76V60H27l-1-4h0v4h-.76Z"/><path class="cls-3" d="M29.92,54.54h1.16L32,60h-.86L31,58.92H30L29.83,60H29Zm.94,3.65-.38-2.7h0l-.37,2.7Z"/><path class="cls-3" d="M33.17,54.54h1.22l.54,3.91h0l.55-3.91h1.22V60h-.81V55.87h0L35.27,60h-.72l-.62-4.13h0V60h-.74Z"/><path class="cls-3" d="M38.8,54.54H40L40.85,60H40l-.15-1.08h-1L38.71,60h-.8Zm.66-1.26h.94l-.83.9h-.65Zm.28,4.91-.38-2.7h0L39,58.19Z"/><path class="cls-3" d="M1.6,51.67a1.5,1.5,0,0,1-.83-.18,1.43,1.43,0,0,1-.51-.55A2.52,2.52,0,0,1,0,50.06a5.33,5.33,0,0,1,0-1.13,4.7,4.7,0,0,1,.23-1A5,5,0,0,1,.68,47a4.74,4.74,0,0,1,.78-1l.16.06.1.07a.21.21,0,0,1,.05.09.44.44,0,0,1-.07.32l-.21.38A8.21,8.21,0,0,0,1.07,48a6.74,6.74,0,0,0-.18,1,5.31,5.31,0,0,0,0,.7,2.48,2.48,0,0,0,.1.54,1.09,1.09,0,0,0,.14.34c.05.08.09.12.14.12s.08,0,.13-.09a1.07,1.07,0,0,0,.13-.21A2.48,2.48,0,0,0,1.72,50c.07-.18.14-.38.22-.61s.15-.48.22-.75.14-.54.2-.81c.12-.54.25-1.16.38-1.84a16.7,16.7,0,0,1,.6-2.15c.09-.32.2-.66.32-1s.23-.7.39-1.13.34-.89.55-1.39c0,0,0-.09.1-.13L5,40l.35-.12a1.9,1.9,0,0,1,.4-.11.43.43,0,0,1,.22,0A.23.23,0,0,1,6,40a.48.48,0,0,1,0,.18c0,.28,0,.55,0,.79s0,.47,0,.65,0,.42,0,.6a8.43,8.43,0,0,1,0,.95c0,.4-.07.81-.11,1.25s-.08.86-.1,1.27a7.39,7.39,0,0,0,0,1,2.55,2.55,0,0,0,0,.4c0,.12,0,.24,0,.36.11-.3.23-.63.37-1s.27-.66.41-1,.26-.6.38-.87.21-.49.28-.67.24-.54.41-.91.34-.73.52-1.09.33-.71.48-1,.26-.52.33-.64a.66.66,0,0,1,.26-.23,2.1,2.1,0,0,1,.4-.18,2.33,2.33,0,0,1,.39-.11.5.5,0,0,1,.25,0,.54.54,0,0,1,.24.1l.08.09a.47.47,0,0,1,0,.17,1.86,1.86,0,0,1,0,.38,7.82,7.82,0,0,1-.14.93c-.08.42-.18.89-.3,1.42s-.23,1.1-.37,1.71-.25,1.19-.37,1.78S9.32,47.5,9.23,48s-.14.94-.17,1.29a4.1,4.1,0,0,0,.08,1,1.58,1.58,0,0,0,.11.37,1.13,1.13,0,0,0,.21.31.75.75,0,0,0,.3.2,1,1,0,0,0,.43,0,3.12,3.12,0,0,1-.63.32,1.8,1.8,0,0,1-.6.1,1.19,1.19,0,0,1-1-.4,1.23,1.23,0,0,1-.24-.47,1.74,1.74,0,0,1,0-.61,9.09,9.09,0,0,1,.16-1c.1-.47.21-1,.34-1.59s.28-1.21.43-1.85l.45-1.81c.14-.57.26-1,.37-1.46s.16-.68.19-.81,0-.19,0-.28a1.44,1.44,0,0,1,.05-.24l-.32.61L9,42.52l-.41.85c-.14.29-.28.57-.4.85-.22.44-.42.89-.63,1.36s-.39.9-.55,1.32-.29.79-.4,1.12a3.22,3.22,0,0,0-.18.77v.35l0,.19-.51.4-.19.06-.16,0a.48.48,0,0,1-.45-.31,3.69,3.69,0,0,1-.28-1.09,10.36,10.36,0,0,1-.08-2c0-.39.05-.79.08-1.19S5,44.44,5,44.08s.07-.71.11-1,0-.6,0-.83a3.41,3.41,0,0,0,0-.46c0-.14,0-.27,0-.39a6.89,6.89,0,0,0-.26.8c-.09.33-.19.71-.29,1.11s-.21.84-.32,1.29-.2.89-.3,1.31-.19.8-.28,1.15l-.2.85c-.09.34-.17.73-.26,1.16a8.84,8.84,0,0,1-.32,1.23,3.27,3.27,0,0,1-.49,1A1,1,0,0,1,1.6,51.67Z"/><path class="cls-3" d="M11.93,44.48a.53.53,0,0,1,.25-.12,2.22,2.22,0,0,1,.37-.09l.35,0h.18a.85.85,0,0,1-.06.27c0,.17-.12.37-.19.6l-.24.71c-.09.24-.15.44-.2.59s-.09.33-.15.52-.11.38-.16.56A2.58,2.58,0,0,0,12,48a.7.7,0,0,0,0,.37.63.63,0,0,0,.14.21.28.28,0,0,0,.17,0,1.14,1.14,0,0,0,.64-.28,6.61,6.61,0,0,0,.8-.67c.26-.26.51-.52.74-.79s.4-.48.51-.64a.52.52,0,0,1,.21-.17.21.21,0,0,1,.18,0,.23.23,0,0,1,.08.17.51.51,0,0,1-.08.27,7.75,7.75,0,0,1-.6.85,12.64,12.64,0,0,1-.85.94,7.4,7.4,0,0,1-.87.77,1.41,1.41,0,0,1-.7.34,1.23,1.23,0,0,1-.42-.07,1.9,1.9,0,0,1-.39-.23,1.35,1.35,0,0,1-.28-.35.9.9,0,0,1-.13-.41,4.24,4.24,0,0,1,0-.88,10.67,10.67,0,0,1,.4-2.24A2.6,2.6,0,0,1,11.93,44.48Zm1.77-2.71a.91.91,0,0,1-.15.27,1,1,0,0,1-.24.22.73.73,0,0,1-.28.1.26.26,0,0,1-.23,0,.59.59,0,0,1-.28-.44.72.72,0,0,1,.12-.44,1.22,1.22,0,0,1,.32-.36.65.65,0,0,1,.33-.17.26.26,0,0,1,.23.05.48.48,0,0,1,.15.22,1.33,1.33,0,0,1,.06.3A1.39,1.39,0,0,1,13.7,41.77Z"/><path class="cls-3" d="M23.66,39.67a1.07,1.07,0,0,1,.74.25,1.1,1.1,0,0,1,.25.9c0,.15,0,.42-.1.81s-.14.86-.22,1.4-.18,1.11-.29,1.73-.21,1.22-.3,1.8h.55l.32,0a2,2,0,0,1-.14.29,2.52,2.52,0,0,1-.15.24l-.18.2a1.6,1.6,0,0,1-.27.25,1.81,1.81,0,0,1-.29.17c-.06.42-.11.79-.15,1.12s-.06.6-.07.81a5.46,5.46,0,0,0,0,.91,4.39,4.39,0,0,0,.16.75,1.26,1.26,0,0,0,.37.61l-1.48.49a1.47,1.47,0,0,1-.23-.58,6.32,6.32,0,0,1-.09-.73,6.14,6.14,0,0,1,0-.86q0-.45.15-1.17c.07-.48.16-1,.25-1.58l-.55-.13a4.61,4.61,0,0,0-.68,0l-.69,0-.72.06c-.1.38-.21.77-.31,1.19s-.21.84-.3,1.16-.17.58-.25.79a2.42,2.42,0,0,1-.25.51.79.79,0,0,1-.26.28,1.51,1.51,0,0,1-.38.14,4.09,4.09,0,0,1-.55.13,7.14,7.14,0,0,1-.85.1l.33-.42a3.64,3.64,0,0,0,.28-.47c.09-.19.2-.43.31-.72s.26-.68.44-1.16c.08-.19.16-.41.24-.64l.26-.72-.78.11a2.9,2.9,0,0,0-.38.08h-.17c-.11,0-.17-.07-.18-.17a.3.3,0,0,1,.12-.24l.33-.15A3.76,3.76,0,0,1,18,47c.24-.09.53-.18.88-.28.13-.36.26-.72.38-1.07s.24-.69.36-1,.24-.63.35-.92.21-.53.3-.73a11,11,0,0,1,.56-1,6.64,6.64,0,0,1,.78-1.07,4.23,4.23,0,0,1,1-.83A2.05,2.05,0,0,1,23.66,39.67Zm-.14,2.66c.1-.39.16-.7.2-.95a3.18,3.18,0,0,0,0-.58.42.42,0,0,0-.08-.29.21.21,0,0,0-.17-.09,1,1,0,0,0-.41.13,2.94,2.94,0,0,0-.51.37,3.36,3.36,0,0,0-.53.58,5.11,5.11,0,0,0-.47.8c-.19.44-.41,1-.66,1.63s-.51,1.46-.8,2.46l.5-.07a4.1,4.1,0,0,1,.49,0c.29,0,.57,0,.83,0l.73.07c.08-.41.15-.81.24-1.21s.15-.77.23-1.13.15-.68.21-1S23.47,42.53,23.52,42.33Z"/><path class="cls-3" d="M25.17,49.08c.38-1.58.68-2.84.9-3.79s.4-1.68.52-2.18.23-1,.28-1.24.05-.32.06-.48A2.77,2.77,0,0,0,27,41a1.61,1.61,0,0,0,0-.39.88.88,0,0,1,.22-.1l.24-.07.28-.06.26,0,.19,0a.14.14,0,0,1,.11.08.31.31,0,0,1,.07.26,2.8,2.8,0,0,1,0,.4c0,.16-.07.33-.12.52-.1.37-.24.89-.42,1.58l-.62,2.4c-.26,1-.58,2.29-1,3.83a.42.42,0,0,1-.16.09.45.45,0,0,1-.16,0l-.19,0a.67.67,0,0,1-.18-.07,1,1,0,0,1-.15-.14A.47.47,0,0,1,25.17,49.08Z"/><path class="cls-3" d="M31.14,42c-.12.51-.27,1-.42,1.46s-.32.9-.49,1.3-.33.77-.5,1.11-.31.62-.44.86a4.59,4.59,0,0,0,0,1.49c.09.37.25.56.5.56a.88.88,0,0,0,.6-.28,2.84,2.84,0,0,0,.52-.69,4.62,4.62,0,0,0,.39-.88,3.41,3.41,0,0,0,.2-.83,1,1,0,0,1-.41-.23.55.55,0,0,1-.16-.42.59.59,0,0,1,.1-.34,1.31,1.31,0,0,1,.24-.28,1.92,1.92,0,0,1,.31-.18.89.89,0,0,1,.3-.06.43.43,0,0,1,.37.27,1.75,1.75,0,0,1,.21.7,5.19,5.19,0,0,0,1.07-.15A7.75,7.75,0,0,0,34.59,45a.34.34,0,0,1,.23,0,.18.18,0,0,1,.12.1.28.28,0,0,1,0,.18.28.28,0,0,1-.16.14c-.19.11-.4.21-.6.3a5.92,5.92,0,0,1-.62.23c-.21.06-.4.1-.59.14a3.36,3.36,0,0,1-.51,0,3.38,3.38,0,0,1-.32,1.1,6,6,0,0,1-.65,1.1,4.22,4.22,0,0,1-.85.84,1.57,1.57,0,0,1-.91.33,3.15,3.15,0,0,1-.37,0,.87.87,0,0,1-.45-.27,1.9,1.9,0,0,1-.37-.73A5.1,5.1,0,0,1,28.41,47a9.26,9.26,0,0,1,.14-1.33c.09-.46.19-.93.31-1.4s.25-.92.4-1.36.29-.83.43-1.19.26-.65.38-.88a1.94,1.94,0,0,1,.26-.46.56.56,0,0,1,.27-.21,1.82,1.82,0,0,1,.3-.11,1.23,1.23,0,0,1,.27,0l.18,0s.06.22,0,.56A6.44,6.44,0,0,1,31.14,42Z"/><path class="cls-3" d="M40.19,46.74c-.12.17-.27.38-.46.63s-.38.51-.58.76-.39.48-.58.69a2.9,2.9,0,0,1-.48.44,1.69,1.69,0,0,1-.3.13l-.33.06a1.17,1.17,0,0,1-.33,0,.81.81,0,0,1-.27-.11.72.72,0,0,1-.19-.25,3.24,3.24,0,0,1-.12-.37,2.06,2.06,0,0,1,0-.58,2.84,2.84,0,0,1-.68.79,3.42,3.42,0,0,1-.7.4,2.65,2.65,0,0,1-.77.16.73.73,0,0,1-.38-.12,1,1,0,0,1-.35-.38,1.91,1.91,0,0,1-.18-.68,3.11,3.11,0,0,1,.11-1,5,5,0,0,1,.56-1.41A5.72,5.72,0,0,1,35,44.8a3.84,3.84,0,0,1,.91-.69,1.42,1.42,0,0,1,.74-.2,1.53,1.53,0,0,1,.56.2.63.63,0,0,1,.24.38.9.9,0,0,1-.21.66,2.32,2.32,0,0,1,.3,0l.18,0a.09.09,0,0,1,.12.12c0,.06,0,.16,0,.3s-.06.35-.12.59-.12.57-.2,1c0,.08,0,.15,0,.21l0,.19,0,.22c0,.09,0,.2-.06.32a2,2,0,0,0,0,.25.92.92,0,0,0,0,.25.35.35,0,0,0,.12.19.37.37,0,0,0,.23.07.67.67,0,0,0,.34-.16,5.24,5.24,0,0,0,.43-.41l.48-.55c.16-.2.32-.39.46-.58l.39-.5c.12-.14.2-.25.25-.32a.4.4,0,0,1,.21-.13c.07,0,.12,0,.15.06a.32.32,0,0,1,0,.23A.81.81,0,0,1,40.19,46.74Zm-3.74.56c0-.17.1-.37.16-.6s.11-.45.15-.66.08-.39.1-.53,0-.2,0-.2l-.14,0-.17,0-.2,0a1.4,1.4,0,0,0,.12-.34.72.72,0,0,0,0-.21.2.2,0,0,0-.05-.14c-.09-.08-.25,0-.49.18A4.52,4.52,0,0,0,35.1,46a3,3,0,0,0-.3.71,4,4,0,0,0-.16.71,2.33,2.33,0,0,0,0,.58.52.52,0,0,0,.1.32.41.41,0,0,0,.32.14.83.83,0,0,0,.36-.11,1.61,1.61,0,0,0,.37-.25,2.46,2.46,0,0,0,.33-.31l.25-.31A.48.48,0,0,0,36.45,47.3Z"/><path class="cls-3" d="M45.93,46.48a.24.24,0,0,1,.18-.11.16.16,0,0,1,.15.05.19.19,0,0,1,.05.17.53.53,0,0,1-.1.26c-.17.22-.35.44-.57.68s-.44.46-.68.68-.49.43-.73.63a6.42,6.42,0,0,1-.72.48,1.32,1.32,0,0,1-.64.22.69.69,0,0,1-.52-.33,1,1,0,0,1-.22-.64,3.47,3.47,0,0,1,.14-.84c.06-.22.15-.47.25-.76a6.74,6.74,0,0,0,.26-.85,2.25,2.25,0,0,0,.06-.7.31.31,0,0,0-.34-.29.86.86,0,0,0-.44.15,2.81,2.81,0,0,0-.47.36,4.32,4.32,0,0,0-.45.5,5.47,5.47,0,0,0-.38.55l-.21,1c-.06.28-.12.57-.18.89s-.13.6-.19.85a.65.65,0,0,1-.16.09l-.17,0-.18,0a.62.62,0,0,1-.19-.07,1,1,0,0,1-.15-.14.57.57,0,0,1-.12-.22c.38-1.58.69-2.84.91-3.79s.39-1.68.51-2.18.23-1,.28-1.24.05-.32.06-.48A2.77,2.77,0,0,0,41,41a1.61,1.61,0,0,0,0-.39.88.88,0,0,1,.22-.1l.24-.07.28-.06.26,0,.19,0a.14.14,0,0,1,.11.08.31.31,0,0,1,.07.26,2.8,2.8,0,0,1,0,.4c0,.16-.07.33-.11.52q-.27,1-.6,2c-.23.65-.43,1.35-.62,2.09a5.67,5.67,0,0,1,.4-.53,3.86,3.86,0,0,1,.5-.49,3.33,3.33,0,0,1,.58-.37,1.47,1.47,0,0,1,.65-.15.93.93,0,0,1,.34.06.67.67,0,0,1,.28.19.88.88,0,0,1,.19.36,1.88,1.88,0,0,1,.05.56,2.18,2.18,0,0,1-.05.42,4.19,4.19,0,0,1-.12.48c0,.17-.11.36-.19.58s-.18.46-.29.74a4.52,4.52,0,0,0-.18.5.42.42,0,0,0,0,.35c.07.14.22.17.45.1a3.71,3.71,0,0,0,1-.66,3.19,3.19,0,0,0,.35-.32l.37-.39.33-.37A2.55,2.55,0,0,1,45.93,46.48Z"/><path class="cls-3" d="M52,46.74l-.46.63c-.19.26-.38.51-.58.76s-.4.48-.59.69a2.9,2.9,0,0,1-.48.44l-.29.13a2,2,0,0,1-.34.06,1.17,1.17,0,0,1-.33,0,.81.81,0,0,1-.27-.11.72.72,0,0,1-.19-.25,3.24,3.24,0,0,1-.12-.37,2.06,2.06,0,0,1,0-.58,2.84,2.84,0,0,1-.68.79,3.42,3.42,0,0,1-.7.4,2.65,2.65,0,0,1-.77.16.76.76,0,0,1-.38-.12,1,1,0,0,1-.35-.38,1.73,1.73,0,0,1-.17-.68,2.81,2.81,0,0,1,.1-1,4.74,4.74,0,0,1,.57-1.41,5.35,5.35,0,0,1,.85-1.09,3.61,3.61,0,0,1,.9-.69,1.44,1.44,0,0,1,.74-.2,1.53,1.53,0,0,1,.56.2.63.63,0,0,1,.24.38.9.9,0,0,1-.21.66,2.32,2.32,0,0,1,.3,0l.18,0,.11,0a.77.77,0,0,1,0,.1,1.53,1.53,0,0,1,0,.3c0,.15-.06.35-.11.59s-.12.57-.21,1c0,.08,0,.15,0,.21l0,.19,0,.22A2.49,2.49,0,0,1,49,48a2,2,0,0,0,0,.25.92.92,0,0,0,0,.25.35.35,0,0,0,.12.19.38.38,0,0,0,.24.07.69.69,0,0,0,.33-.16,5.24,5.24,0,0,0,.43-.41l.48-.55.47-.58c.14-.19.27-.35.39-.5l.24-.32A.4.4,0,0,1,52,46.1c.07,0,.12,0,.15.06s0,.12,0,.23A.9.9,0,0,1,52,46.74Zm-3.74.56q.06-.25.15-.6c.06-.22.11-.45.15-.66s.08-.39.1-.53,0-.2,0-.2l-.14,0a.61.61,0,0,1-.17,0l-.2,0a1.07,1.07,0,0,0,.12-.34,1.79,1.79,0,0,0,0-.21.26.26,0,0,0-.06-.14c-.09-.08-.25,0-.49.18A4.52,4.52,0,0,0,46.88,46a3.44,3.44,0,0,0-.3.71,4,4,0,0,0-.16.71,2.33,2.33,0,0,0,0,.58.52.52,0,0,0,.1.32.41.41,0,0,0,.32.14.83.83,0,0,0,.36-.11,1.42,1.42,0,0,0,.37-.25,2,2,0,0,0,.33-.31l.25-.31A.71.71,0,0,0,48.24,47.3Z"/><path class="cls-3" d="M53.29,48.85a1.59,1.59,0,0,0,.87-.31,7.8,7.8,0,0,0,.94-.74c.3-.28.57-.57.83-.86a7.88,7.88,0,0,0,.56-.71.56.56,0,0,1,.22-.2c.07,0,.12,0,.15,0a.23.23,0,0,1,0,.19.69.69,0,0,1-.11.3,4.39,4.39,0,0,1-.3.44c-.14.2-.31.4-.5.63a8.23,8.23,0,0,1-.65.69,7.58,7.58,0,0,1-.76.64,4.23,4.23,0,0,1-.82.47,2.09,2.09,0,0,1-.83.19A2,2,0,0,1,52,49.4a1.74,1.74,0,0,1-.6-.54,2.27,2.27,0,0,1-.31-.73,3.7,3.7,0,0,1-.09-.8,3.47,3.47,0,0,1,.18-1,4.64,4.64,0,0,1,.53-1.13,3.57,3.57,0,0,1,.89-.93,2.1,2.1,0,0,1,1.26-.39.95.95,0,0,1,1,1,1.43,1.43,0,0,1-.07.46,1.45,1.45,0,0,1-.21.39.89.89,0,0,1-.3.28.8.8,0,0,1-.38.1.26.26,0,0,1-.24-.12.69.69,0,0,1-.11-.28,1.71,1.71,0,0,1,0-.32.79.79,0,0,1,.05-.2.43.43,0,0,1,.14-.13l.18-.09a.25.25,0,0,0,.12-.11.33.33,0,0,0,0-.17.2.2,0,0,0,0-.15.2.2,0,0,0-.16-.07,1.12,1.12,0,0,0-.42.19,2.73,2.73,0,0,0-.61.55,3.93,3.93,0,0,0-.56.91A3.35,3.35,0,0,0,52,47.46a1.56,1.56,0,0,0,.11.69,1.17,1.17,0,0,0,.32.42,1.41,1.41,0,0,0,.42.22A1.86,1.86,0,0,0,53.29,48.85Z"/><path class="cls-3" d="M62.42,46.74l-.46.63c-.19.26-.38.51-.58.76s-.4.48-.59.69a2.9,2.9,0,0,1-.48.44,1.57,1.57,0,0,1-.29.13,2,2,0,0,1-.34.06,1.2,1.2,0,0,1-.33,0,.68.68,0,0,1-.26-.11.63.63,0,0,1-.2-.25,3.24,3.24,0,0,1-.12-.37,2.06,2.06,0,0,1,0-.58,2.84,2.84,0,0,1-.68.79,3.42,3.42,0,0,1-.7.4,2.65,2.65,0,0,1-.77.16.76.76,0,0,1-.38-.12.91.91,0,0,1-.34-.38,1.57,1.57,0,0,1-.18-.68,3.07,3.07,0,0,1,.1-1,4.74,4.74,0,0,1,.57-1.41,5.35,5.35,0,0,1,.85-1.09,3.61,3.61,0,0,1,.9-.69,1.44,1.44,0,0,1,.74-.2,1.53,1.53,0,0,1,.56.2.63.63,0,0,1,.24.38.9.9,0,0,1-.21.66,2.32,2.32,0,0,1,.3,0l.18,0a.23.23,0,0,1,.11,0,.22.22,0,0,1,0,.1,1.53,1.53,0,0,1,0,.3c0,.15-.06.35-.11.59s-.12.57-.21,1c0,.08,0,.15,0,.21l0,.19-.05.22a2.49,2.49,0,0,1-.06.32,2,2,0,0,0,0,.25.92.92,0,0,0,.05.25.35.35,0,0,0,.12.19.4.4,0,0,0,.24.07.69.69,0,0,0,.33-.16,5.24,5.24,0,0,0,.43-.41c.16-.17.32-.35.48-.55l.47-.58c.14-.19.27-.35.39-.5l.25-.32a.35.35,0,0,1,.2-.13c.07,0,.12,0,.15.06s0,.12,0,.23A.9.9,0,0,1,62.42,46.74Zm-3.74.56.15-.6c.06-.22.11-.45.15-.66s.08-.39.1-.53,0-.2,0-.2l-.14,0a.61.61,0,0,1-.17,0l-.2,0a1.07,1.07,0,0,0,.12-.34.8.8,0,0,0,0-.21.38.38,0,0,0,0-.14c-.1-.08-.26,0-.5.18A4.52,4.52,0,0,0,57.32,46a3.44,3.44,0,0,0-.3.71,4,4,0,0,0-.16.71,2.33,2.33,0,0,0,0,.58.59.59,0,0,0,.1.32.41.41,0,0,0,.32.14.83.83,0,0,0,.36-.11,1.42,1.42,0,0,0,.37-.25,2.56,2.56,0,0,0,.34-.31l.24-.31A.71.71,0,0,0,58.68,47.3Z"/><path class="cls-4" d="M2.13,51.19A1.69,1.69,0,0,1,1.31,51a1.46,1.46,0,0,1-.51-.56,2.41,2.41,0,0,1-.23-.88,5.23,5.23,0,0,1,0-1.12,5.32,5.32,0,0,1,.23-1,5.4,5.4,0,0,1,.42-1,4.72,4.72,0,0,1,.77-1l.17.06a.26.26,0,0,1,.1.07.2.2,0,0,1,.05.09.51.51,0,0,1-.07.32c-.07.12-.14.24-.21.38a5.92,5.92,0,0,0-.42,1.11,6.5,6.5,0,0,0-.18,1,5.19,5.19,0,0,0,0,.69,3,3,0,0,0,.09.53,1.8,1.8,0,0,0,.14.35c.06.08.1.12.15.12s.08,0,.13-.09a.91.91,0,0,0,.13-.22,2.52,2.52,0,0,0,.18-.39c.07-.17.14-.37.22-.6s.15-.48.22-.75.14-.53.2-.8c.12-.55.24-1.16.38-1.84a16.7,16.7,0,0,1,.6-2.15c.08-.31.19-.66.32-1s.23-.7.39-1.13.33-.89.54-1.39c0,0,0-.09.1-.13l.25-.12.35-.12a1.9,1.9,0,0,1,.4-.11.43.43,0,0,1,.22,0,.23.23,0,0,1,.1.14.48.48,0,0,1,0,.18c0,.28,0,.54,0,.79s0,.46,0,.65,0,.42,0,.6a6.87,6.87,0,0,1,0,.95c0,.39-.07.81-.1,1.24s-.08.86-.11,1.27a9.22,9.22,0,0,0,0,1c0,.15,0,.28,0,.4s0,.25.05.37c.11-.31.23-.63.37-1s.27-.66.41-1,.26-.6.38-.87.21-.49.28-.67.24-.54.41-.9l.51-1.1.49-1c.14-.31.25-.52.32-.64a.66.66,0,0,1,.26-.23,2.43,2.43,0,0,1,.4-.18,2.33,2.33,0,0,1,.39-.11.5.5,0,0,1,.25,0,.45.45,0,0,1,.23.1.36.36,0,0,1,.09.09.85.85,0,0,1,0,.17,3.07,3.07,0,0,1,0,.38,7.82,7.82,0,0,1-.14.93c-.08.41-.18.89-.3,1.42s-.23,1.09-.37,1.7-.25,1.19-.37,1.77S9.85,47,9.76,47.53s-.15.94-.18,1.29a4.1,4.1,0,0,0,.08,1,1.6,1.6,0,0,0,.12.37.92.92,0,0,0,.2.31.88.88,0,0,0,.3.2,1,1,0,0,0,.43,0,2.34,2.34,0,0,1-.63.32,1.81,1.81,0,0,1-.6.11,1.4,1.4,0,0,1-.56-.1,1,1,0,0,1-.41-.31,1.16,1.16,0,0,1-.24-.47,1.66,1.66,0,0,1,0-.6,9.41,9.41,0,0,1,.17-1c.09-.47.2-1,.33-1.58s.28-1.21.44-1.85.3-1.24.44-1.81S9.86,42.41,10,42s.16-.67.19-.8,0-.2,0-.29a1.32,1.32,0,0,1,.05-.23l-.32.61-.38.76c-.14.27-.28.56-.42.85l-.4.85c-.21.44-.42.89-.62,1.35s-.39.91-.55,1.32-.3.79-.4,1.12a4,4,0,0,0-.19.77v.18s0,.11,0,.17a.54.54,0,0,0,0,.19l-.51.4-.2.06-.15,0A.48.48,0,0,1,5.7,49a3.69,3.69,0,0,1-.28-1.09,10.26,10.26,0,0,1-.08-2c0-.39,0-.79.09-1.19s.07-.78.11-1.14.07-.71.11-1,0-.59,0-.82a3.41,3.41,0,0,0,0-.46c0-.14,0-.27-.05-.39a6.63,6.63,0,0,0-.26.79c-.09.34-.19.71-.29,1.12s-.21.83-.31,1.28-.21.89-.31,1.3-.19.8-.27,1.16S4,47.19,4,47.4s-.17.73-.25,1.16a11,11,0,0,1-.32,1.23,3.22,3.22,0,0,1-.5,1A1,1,0,0,1,2.13,51.19Z"/><path class="cls-4" d="M12.45,44a.44.44,0,0,1,.24-.12c.12,0,.24-.06.37-.09l.35,0a.53.53,0,0,1,.19,0,2.51,2.51,0,0,1-.07.27c0,.17-.11.37-.19.6s-.16.46-.24.71a5.49,5.49,0,0,0-.19.59q-.06.23-.15.51c-.06.19-.12.38-.16.56a3.92,3.92,0,0,0-.1.52.69.69,0,0,0,0,.37.51.51,0,0,0,.14.21.27.27,0,0,0,.17.06,1.29,1.29,0,0,0,.64-.28,7.62,7.62,0,0,0,.79-.67c.27-.26.51-.52.74-.79a6.83,6.83,0,0,0,.51-.65.49.49,0,0,1,.21-.16.19.19,0,0,1,.18,0,.23.23,0,0,1,.08.17.6.6,0,0,1-.09.27,6.36,6.36,0,0,1-.59.84c-.27.33-.55.64-.84.94a7.59,7.59,0,0,1-.88.78,1.41,1.41,0,0,1-.69.33,1.25,1.25,0,0,1-.43-.07,1.6,1.6,0,0,1-.38-.23,1.64,1.64,0,0,1-.29-.35.88.88,0,0,1-.12-.41,4.14,4.14,0,0,1,0-.87,9.32,9.32,0,0,1,.14-1.14,7.67,7.67,0,0,1,.26-1.1A2.19,2.19,0,0,1,12.45,44Zm1.76-2.71a.85.85,0,0,1-.15.28,1,1,0,0,1-.24.21.77.77,0,0,1-.27.11.25.25,0,0,1-.23,0,.58.58,0,0,1-.28-.44.79.79,0,0,1,.11-.45,1.34,1.34,0,0,1,.32-.35.74.74,0,0,1,.33-.17.29.29,0,0,1,.24.05.55.55,0,0,1,.14.22.73.73,0,0,1,.06.3A1.23,1.23,0,0,1,14.21,41.3Z"/><path class="cls-4" d="M24.16,39.21a1.11,1.11,0,0,1,.73.25,1.1,1.1,0,0,1,.25.9c0,.14-.05.41-.11.81l-.21,1.39c-.09.54-.18,1.11-.29,1.73s-.2,1.21-.3,1.8h.55l.32,0a2.59,2.59,0,0,1-.14.29,1.34,1.34,0,0,1-.16.23,1.2,1.2,0,0,1-.17.21,1.55,1.55,0,0,1-.27.24,1.92,1.92,0,0,1-.29.18q-.09.62-.15,1.11c0,.33-.06.6-.07.81a4.42,4.42,0,0,0,0,.9,3.32,3.32,0,0,0,.15.75,1.29,1.29,0,0,0,.37.62l-1.48.48a1.41,1.41,0,0,1-.22-.58,5.93,5.93,0,0,1-.1-.72,6.15,6.15,0,0,1,0-.86c0-.3.06-.69.14-1.17s.16-1,.25-1.57a4,4,0,0,0-.55-.13,4.47,4.47,0,0,0-.67,0l-.69,0-.72.07c-.1.37-.21.77-.31,1.18s-.21.84-.3,1.15-.17.59-.25.8a3.09,3.09,0,0,1-.24.51.91.91,0,0,1-.27.28,2,2,0,0,1-.38.14,5.08,5.08,0,0,1-.55.13c-.22,0-.5.07-.85.1a5,5,0,0,0,.33-.42,2.92,2.92,0,0,0,.28-.47,6.7,6.7,0,0,0,.31-.72c.12-.29.27-.68.44-1.15.08-.2.16-.41.24-.65l.26-.72-.78.12-.38.07h-.16a.18.18,0,0,1-.18-.16.28.28,0,0,1,.12-.24,1.87,1.87,0,0,1,.32-.16l.47-.18c.24-.09.54-.19.88-.29.13-.35.26-.71.38-1.06s.24-.69.36-1,.24-.63.35-.91.21-.53.3-.74a11,11,0,0,1,.56-1,6.75,6.75,0,0,1,.77-1.07,4.7,4.7,0,0,1,1-.83A2.06,2.06,0,0,1,24.16,39.21ZM24,41.86c.09-.38.15-.69.19-.94a3.22,3.22,0,0,0,0-.58.42.42,0,0,0-.08-.29A.21.21,0,0,0,24,40a1,1,0,0,0-.41.13,3.46,3.46,0,0,0-.51.36,4.48,4.48,0,0,0-.53.59,4.09,4.09,0,0,0-.46.8q-.3.66-.66,1.62c-.25.64-.52,1.46-.81,2.45l.51-.06a4,4,0,0,1,.49,0c.29,0,.56,0,.83,0l.72.07.24-1.2c.08-.39.16-.77.23-1.13s.15-.68.21-1S24,42.07,24,41.86Z"/><path class="cls-4" d="M25.66,48.6q.56-2.35.9-3.78c.22-1,.39-1.68.51-2.18s.23-1,.28-1.24,0-.31.07-.47,0-.27,0-.42a1.61,1.61,0,0,0,0-.39.67.67,0,0,1,.23-.1l.23-.07.28-.06.26,0,.19,0a.12.12,0,0,1,.11.08.31.31,0,0,1,.07.26,2.56,2.56,0,0,1,0,.39c0,.17-.07.34-.11.53-.11.36-.25.89-.42,1.58s-.36,1.38-.62,2.39-.59,2.28-1,3.82a.38.38,0,0,1-.15.09l-.16,0-.2,0a.51.51,0,0,1-.17-.07.7.7,0,0,1-.16-.14A.46.46,0,0,1,25.66,48.6Z"/><path class="cls-4" d="M31.62,41.51c-.13.5-.27,1-.43,1.45s-.32.9-.48,1.3-.33.77-.5,1.1-.31.62-.44.87a4.53,4.53,0,0,0,0,1.48c.09.37.25.56.5.56a.87.87,0,0,0,.6-.28,3.12,3.12,0,0,0,.52-.69,5.74,5.74,0,0,0,.39-.87,4.58,4.58,0,0,0,.2-.84.82.82,0,0,1-.41-.22.58.58,0,0,1-.17-.43.67.67,0,0,1,.1-.33,1.12,1.12,0,0,1,.25-.28,1.49,1.49,0,0,1,.3-.18.89.89,0,0,1,.31-.06.44.44,0,0,1,.37.27,1.93,1.93,0,0,1,.2.7A5.19,5.19,0,0,0,34,44.91a8.24,8.24,0,0,0,1.06-.36.34.34,0,0,1,.23,0,.18.18,0,0,1,.12.1.23.23,0,0,1,0,.18.23.23,0,0,1-.15.14c-.2.11-.4.21-.61.3a5.55,5.55,0,0,1-1.2.36,2.43,2.43,0,0,1-.51,0,3.5,3.5,0,0,1-.32,1.11A5.42,5.42,0,0,1,32,47.84a3.72,3.72,0,0,1-.84.84,1.59,1.59,0,0,1-.91.33,3.15,3.15,0,0,1-.37,0,.83.83,0,0,1-.45-.27A1.9,1.9,0,0,1,29,48a5,5,0,0,1-.13-1.43A9.26,9.26,0,0,1,29,45.21c.09-.47.19-.93.31-1.4s.25-.92.4-1.36.29-.83.43-1.18.26-.65.37-.89a2.55,2.55,0,0,1,.26-.45.66.66,0,0,1,.27-.21,1.82,1.82,0,0,1,.3-.11,1.32,1.32,0,0,1,.27,0l.18,0c.05,0,.07.22.05.56A7.36,7.36,0,0,1,31.62,41.51Z"/><path class="cls-4" d="M40.65,46.27c-.12.17-.27.38-.46.63l-.58.75c-.2.25-.39.48-.58.69a3.36,3.36,0,0,1-.48.44,1.69,1.69,0,0,1-.3.13,1.91,1.91,0,0,1-.33.06,1.17,1.17,0,0,1-.33,0,.68.68,0,0,1-.26-.11.63.63,0,0,1-.2-.25,3.24,3.24,0,0,1-.12-.37,2.06,2.06,0,0,1,0-.58,2.7,2.7,0,0,1-.68.79,3.18,3.18,0,0,1-.7.4,2.58,2.58,0,0,1-.76.16.73.73,0,0,1-.38-.12.93.93,0,0,1-.35-.38,1.91,1.91,0,0,1-.18-.67,3.05,3.05,0,0,1,.11-1,4.62,4.62,0,0,1,.56-1.41,5.35,5.35,0,0,1,.85-1.09,3.94,3.94,0,0,1,.9-.68,1.1,1.1,0,0,1,1.3,0,.61.61,0,0,1,.24.37.9.9,0,0,1-.21.66,1.33,1.33,0,0,1,.3,0l.18,0a.09.09,0,0,1,.12.12c0,.06,0,.16,0,.3s-.06.34-.12.59-.11.56-.2,1c0,.08,0,.15,0,.21l0,.2,0,.22c0,.08,0,.19-.06.32a1.93,1.93,0,0,0,0,.25.93.93,0,0,0,0,.24.35.35,0,0,0,.12.19.32.32,0,0,0,.23.07.6.6,0,0,0,.34-.16,4,4,0,0,0,.43-.41c.15-.16.31-.35.48-.55s.32-.39.46-.58l.39-.49.25-.32a.33.33,0,0,1,.2-.13.12.12,0,0,1,.15,0,.25.25,0,0,1,0,.23A1,1,0,0,1,40.65,46.27Zm-3.73.56q.06-.26.15-.6t.15-.66c.05-.21.08-.39.1-.53s0-.21,0-.2l-.14,0a.61.61,0,0,1-.17,0l-.2,0a1.07,1.07,0,0,0,.12-.34.8.8,0,0,0,0-.21.38.38,0,0,0-.05-.14c-.1-.08-.26,0-.49.18a4.05,4.05,0,0,0-.81,1.11,3.39,3.39,0,0,0-.31.7,5.44,5.44,0,0,0-.16.71,2.93,2.93,0,0,0,0,.58.51.51,0,0,0,.11.32.39.39,0,0,0,.31.14,1.08,1.08,0,0,0,.37-.1,3.45,3.45,0,0,0,.37-.25,3.34,3.34,0,0,0,.33-.32,2.91,2.91,0,0,0,.24-.31A.84.84,0,0,0,36.92,46.83Z"/><path class="cls-4" d="M46.37,46a.3.3,0,0,1,.18-.11.25.25,0,0,1,.16,0,.3.3,0,0,1,0,.18.53.53,0,0,1-.11.25,8,8,0,0,1-.56.68,8.73,8.73,0,0,1-.68.68c-.25.22-.49.43-.74.63a5.55,5.55,0,0,1-.71.48,1.32,1.32,0,0,1-.64.22.69.69,0,0,1-.52-.33,1,1,0,0,1-.22-.63,3.11,3.11,0,0,1,.15-.85c.05-.21.14-.47.24-.76a7.46,7.46,0,0,0,.26-.85,2.19,2.19,0,0,0,.06-.69.31.31,0,0,0-.34-.29.87.87,0,0,0-.43.14,3.09,3.09,0,0,0-.48.37,5.64,5.64,0,0,0-.45.5c-.14.19-.27.37-.38.55s-.14.66-.2,1-.12.57-.19.88-.12.6-.18.85a.56.56,0,0,1-.17.09l-.16,0-.18,0a.62.62,0,0,1-.19-.07,1,1,0,0,1-.16-.14.46.46,0,0,1-.11-.22q.57-2.35.9-3.78c.22-1,.39-1.68.51-2.18s.23-1,.28-1.24,0-.31.07-.47,0-.27,0-.42a1.61,1.61,0,0,0,0-.39.67.67,0,0,1,.23-.1l.23-.07.28-.06.26,0,.19,0a.12.12,0,0,1,.11.08.31.31,0,0,1,.07.26,2.56,2.56,0,0,1,0,.39c0,.17-.07.34-.11.53-.18.68-.38,1.35-.6,2s-.43,1.35-.61,2.08a5.41,5.41,0,0,1,.39-.52,3.86,3.86,0,0,1,.5-.49,3.33,3.33,0,0,1,.58-.37,1.62,1.62,0,0,1,.65-.14,1.27,1.27,0,0,1,.34,0,.77.77,0,0,1,.28.19,1,1,0,0,1,.19.36,1.84,1.84,0,0,1,0,.56,2.18,2.18,0,0,1,0,.42c0,.14-.07.3-.12.47s-.12.37-.2.58-.17.46-.28.74-.14.36-.18.5a.42.42,0,0,0,0,.35c.08.14.23.17.46.1a3.71,3.71,0,0,0,1-.66,4.37,4.37,0,0,0,.34-.31l.37-.39.33-.38Z"/><path class="cls-4" d="M52.41,46.27,52,46.9l-.58.75c-.2.25-.4.48-.59.69a2.9,2.9,0,0,1-.48.44,1.57,1.57,0,0,1-.29.13,1.86,1.86,0,0,1-.34.06,1.13,1.13,0,0,1-.32,0,.81.81,0,0,1-.27-.11.62.62,0,0,1-.19-.25,3.24,3.24,0,0,1-.12-.37,2.45,2.45,0,0,1-.05-.58,2.54,2.54,0,0,1-.67.79,3.42,3.42,0,0,1-.7.4,2.65,2.65,0,0,1-.77.16.79.79,0,0,1-.38-.12.91.91,0,0,1-.34-.38,1.91,1.91,0,0,1-.18-.67,3,3,0,0,1,.1-1,4.64,4.64,0,0,1,.57-1.41,5.35,5.35,0,0,1,.85-1.09,3.55,3.55,0,0,1,.9-.68,1.1,1.1,0,0,1,1.3,0,.61.61,0,0,1,.24.37,1,1,0,0,1-.22.66,1.33,1.33,0,0,1,.3,0l.19,0a.22.22,0,0,1,.1,0,.22.22,0,0,1,0,.1,2.44,2.44,0,0,1,0,.3l-.12.59c0,.25-.12.56-.2,1,0,.08,0,.15-.05.21l0,.2,0,.22c0,.08,0,.19-.06.32a1.93,1.93,0,0,0,0,.25.93.93,0,0,0,0,.24.43.43,0,0,0,.13.19.32.32,0,0,0,.23.07.55.55,0,0,0,.33-.16,3.22,3.22,0,0,0,.43-.41,6.75,6.75,0,0,0,.48-.55l.47-.58c.14-.18.27-.35.39-.49l.24-.32a.35.35,0,0,1,.21-.13.12.12,0,0,1,.15,0,.33.33,0,0,1,0,.23A1,1,0,0,1,52.41,46.27Zm-3.74.56c0-.17.1-.37.16-.6s.11-.45.15-.66.07-.39.09-.53,0-.21,0-.2l-.14,0-.17,0-.2,0a2,2,0,0,0,.12-.34.72.72,0,0,0,0-.21.26.26,0,0,0-.05-.14c-.09-.08-.25,0-.49.18a4.52,4.52,0,0,0-.81,1.11,3.36,3.36,0,0,0-.3.7,4.19,4.19,0,0,0-.16.71,2.33,2.33,0,0,0,0,.58.59.59,0,0,0,.1.32.41.41,0,0,0,.32.14,1,1,0,0,0,.36-.1,2.19,2.19,0,0,0,.37-.25,2,2,0,0,0,.33-.32,3.09,3.09,0,0,0,.25-.31A.71.71,0,0,0,48.67,46.83Z"/><path class="cls-4" d="M53.72,48.37a1.62,1.62,0,0,0,.87-.31,6.92,6.92,0,0,0,.93-.73,11.1,11.1,0,0,0,.83-.86c.25-.3.44-.53.56-.71a.49.49,0,0,1,.22-.2q.1,0,.15,0a.25.25,0,0,1,0,.2.85.85,0,0,1-.11.3c-.06.1-.16.25-.3.44s-.31.4-.5.62a8.23,8.23,0,0,1-.65.69,5.73,5.73,0,0,1-.76.64,4.15,4.15,0,0,1-.81.47,2.11,2.11,0,0,1-.83.18,1.92,1.92,0,0,1-.94-.21,1.62,1.62,0,0,1-.59-.54,2.09,2.09,0,0,1-.32-.73,3.63,3.63,0,0,1-.09-.8,3.47,3.47,0,0,1,.18-1,4.58,4.58,0,0,1,.53-1.12,3.57,3.57,0,0,1,.89-.93,2.05,2.05,0,0,1,1.26-.39.94.94,0,0,1,.69.28,1,1,0,0,1,.28.76,1.44,1.44,0,0,1-.08.46,1.59,1.59,0,0,1-.2.39,1.08,1.08,0,0,1-.3.27.73.73,0,0,1-.38.11.28.28,0,0,1-.25-.13.63.63,0,0,1-.1-.28,1.61,1.61,0,0,1,0-.31,1,1,0,0,1,0-.2.55.55,0,0,1,.14-.13l.18-.09a.25.25,0,0,0,.12-.11.34.34,0,0,0,0-.17.25.25,0,0,0,0-.15.22.22,0,0,0-.17-.06,1.08,1.08,0,0,0-.41.18,2.53,2.53,0,0,0-.61.55,3.45,3.45,0,0,0-.56.91A3.3,3.3,0,0,0,52.42,47a1.56,1.56,0,0,0,.11.69,1.17,1.17,0,0,0,.32.42,1.41,1.41,0,0,0,.42.22A1.74,1.74,0,0,0,53.72,48.37Z"/><path class="cls-4" d="M62.82,46.27c-.11.17-.27.38-.45.63l-.58.75c-.2.25-.4.48-.59.69a2.9,2.9,0,0,1-.48.44,1.57,1.57,0,0,1-.29.13,1.86,1.86,0,0,1-.34.06,1.13,1.13,0,0,1-.32,0,.81.81,0,0,1-.27-.11.62.62,0,0,1-.19-.25,3.24,3.24,0,0,1-.12-.37,2,2,0,0,1,0-.58,2.68,2.68,0,0,1-.67.79,3.42,3.42,0,0,1-.7.4A2.65,2.65,0,0,1,57,49a.76.76,0,0,1-.38-.12.91.91,0,0,1-.34-.38,1.56,1.56,0,0,1-.18-.67,3,3,0,0,1,.1-1,4.64,4.64,0,0,1,.57-1.41,5.7,5.7,0,0,1,.84-1.09,3.77,3.77,0,0,1,.91-.68,1.35,1.35,0,0,1,.74-.21,1.42,1.42,0,0,1,.56.21.55.55,0,0,1,.23.37.9.9,0,0,1-.21.66,1.33,1.33,0,0,1,.3,0l.19,0a.22.22,0,0,1,.1,0,.22.22,0,0,1,0,.1,1.53,1.53,0,0,1,0,.3c0,.15-.06.34-.11.59s-.12.56-.2,1c0,.08,0,.15-.05.21l0,.2,0,.22c0,.08,0,.19-.07.32a2.08,2.08,0,0,0,0,.25.93.93,0,0,0,0,.24.52.52,0,0,0,.12.19.36.36,0,0,0,.24.07.6.6,0,0,0,.33-.16,3.22,3.22,0,0,0,.43-.41,6.75,6.75,0,0,0,.48-.55l.47-.58.38-.49.25-.32a.35.35,0,0,1,.21-.13.12.12,0,0,1,.15,0,.33.33,0,0,1,0,.23A.9.9,0,0,1,62.82,46.27Zm-3.73.56c0-.17.1-.37.16-.6s.11-.45.15-.66.07-.39.09-.53,0-.21,0-.2l-.14,0-.16,0L59,45a1.51,1.51,0,0,0,.13-.34.72.72,0,0,0,0-.21.26.26,0,0,0-.05-.14c-.09-.08-.26,0-.49.18a4.52,4.52,0,0,0-.81,1.11,2.9,2.9,0,0,0-.3.7,4.19,4.19,0,0,0-.16.71,2.33,2.33,0,0,0,0,.58.52.52,0,0,0,.1.32.41.41,0,0,0,.32.14,1,1,0,0,0,.36-.1,2.68,2.68,0,0,0,.37-.25,3.34,3.34,0,0,0,.33-.32A2,2,0,0,0,59,47,.58.58,0,0,0,59.09,46.83Z"/><path class="cls-2" d="M18,54.31h1.26a1.25,1.25,0,0,1,1,.34,1.43,1.43,0,0,1,.32,1v.54a1.46,1.46,0,0,1-.32,1,1.25,1.25,0,0,1-1,.34h-.41v2.22H18Zm1.26,2.45a.39.39,0,0,0,.31-.12.57.57,0,0,0,.11-.39V55.6a.6.6,0,0,0-.11-.4.38.38,0,0,0-.31-.11h-.41v1.67Z"/><path class="cls-2" d="M22.14,54.31h1.17l.89,5.45h-.86l-.16-1.08h-1l-.16,1.07h-.79ZM23.08,58l-.38-2.69h0L22.31,58Z"/><path class="cls-2" d="M25.39,54.31h1.07l.84,3.26h0V54.31h.77v5.45H27.2l-1-4h0v4h-.76Z"/><path class="cls-2" d="M30.16,54.31h1.16l.89,5.45h-.86l-.15-1.08h-1l-.15,1.07h-.8ZM31.09,58l-.38-2.69h0L30.32,58Z"/><path class="cls-2" d="M33.4,54.31h1.23l.54,3.9h0l.54-3.9H37v5.45h-.81V55.63h0l-.62,4.13h-.72l-.62-4.13h0v4.13H33.4Z"/><path class="cls-2" d="M39,54.31H40.2l.89,5.45h-.86l-.15-1.08h-1L39,59.76h-.8ZM39.7,53h.94l-.84.9h-.64ZM40,58l-.38-2.69h0L39.2,58Z"/></svg>